<?xml version="1.0" standalone="no"?>
<!DOCTYPE svg PUBLIC "-//W3C//DTD SVG 20010904//EN"
 "http://www.w3.org/TR/2001/REC-SVG-20010904/DTD/svg10.dtd">
<svg version="1.0" xmlns="http://www.w3.org/2000/svg"
 width="1000.000000pt" height="1000.000000pt" viewBox="0 0 1000.000000 1000.000000"
 preserveAspectRatio="xMidYMid meet">
<metadata>
Created by potrace 1.14, written by Peter Selinger 2001-2017
</metadata>
<g transform="translate(0.000000,1000.000000) scale(0.100000,-0.100000)"
fill="#000000" stroke="none">
<path d="M4976 7128 c-9 -24 -22 -54 -28 -68 -7 -14 -12 -27 -13 -30 -2 -7
-17 -41 -63 -147 -22 -51 -37 -93 -34 -93 4 0 2 -4 -3 -8 -6 -4 -21 -34 -34
-67 -13 -33 -37 -88 -53 -123 -15 -34 -28 -65 -28 -68 0 -3 -11 -29 -24 -57
-19 -42 -163 -380 -233 -547 -8 -19 -20 -48 -28 -65 -7 -16 -20 -46 -28 -65
-20 -44 -38 -93 -38 -100 0 -3 -8 -13 -16 -22 -9 -10 -13 -18 -10 -18 5 0 -10
-41 -53 -135 -9 -22 -61 -143 -115 -270 -53 -126 -104 -246 -112 -265 -26 -59
-40 -91 -84 -195 -23 -55 -59 -140 -80 -189 -22 -49 -39 -95 -39 -102 0 -8 -4
-14 -10 -14 -5 0 -10 -5 -10 -11 0 -9 -73 -189 -115 -284 -20 -44 -47 -108
-95 -220 -23 -55 -51 -119 -61 -142 -11 -24 -19 -45 -19 -47 0 -2 -10 -26 -22
-53 -12 -26 -22 -50 -23 -53 -1 -3 -9 -23 -19 -45 -10 -22 -26 -61 -36 -86
-10 -26 -28 -66 -39 -90 -11 -24 -52 -120 -91 -214 -40 -93 -83 -194 -96 -223
-13 -29 -24 -55 -24 -58 0 -3 -9 -25 -20 -50 -11 -24 -25 -55 -30 -69 l-10
-25 310 0 310 0 11 28 c6 15 17 41 24 57 8 17 30 71 50 120 20 50 44 106 52
125 8 19 19 44 23 55 31 74 112 267 126 300 10 22 18 45 19 50 2 14 13 40 43
105 14 30 26 57 26 60 1 6 23 61 46 115 15 36 20 49 31 80 2 6 13 30 25 55
l22 45 736 1 736 0 11 -34 c6 -19 17 -46 25 -60 8 -15 14 -31 14 -35 0 -5 7
-24 15 -43 29 -66 43 -100 80 -189 20 -49 42 -103 50 -120 7 -16 29 -69 49
-117 20 -49 52 -127 72 -175 20 -49 42 -101 49 -118 7 -16 21 -50 32 -74 10
-25 36 -85 59 -135 l40 -91 312 -3 311 -2 -15 37 c-9 21 -24 56 -34 78 -10 22
-30 69 -45 105 -14 36 -33 81 -42 100 -21 48 -31 72 -108 255 -76 179 -83 196
-120 280 -15 33 -28 65 -30 70 -1 6 -10 28 -20 50 -9 22 -35 83 -57 135 -22
52 -48 113 -59 136 -10 22 -27 63 -38 90 -10 27 -27 67 -37 89 -10 22 -18 42
-19 45 -1 3 -11 26 -23 52 -12 26 -22 49 -22 52 0 3 -11 29 -24 58 -13 29 -43
98 -66 153 -23 55 -51 120 -62 145 -22 48 -40 92 -43 100 -1 3 -8 21 -17 40
-8 19 -48 112 -88 205 -39 94 -83 195 -97 225 -14 30 -31 71 -38 90 -7 19 -26
64 -42 100 -17 36 -38 87 -48 113 -10 26 -22 50 -26 53 -5 3 -9 12 -9 21 0 9
-11 39 -24 67 -13 28 -36 80 -51 116 -15 36 -36 84 -46 107 -11 23 -19 49 -19
57 0 8 -4 17 -9 20 -4 3 -16 27 -26 53 -10 26 -27 68 -38 93 -37 86 -45 105
-82 195 -20 50 -42 104 -50 120 -7 17 -43 102 -80 190 -37 88 -72 171 -78 185
-6 14 -11 27 -12 30 -1 3 -8 21 -17 40 -8 19 -30 71 -48 115 -19 44 -36 83
-40 88 -3 4 -14 -12 -24 -35z m43 -1363 c12 -44 28 -96 36 -115 14 -38 120
-296 141 -345 20 -49 60 -144 97 -235 19 -47 73 -177 120 -290 46 -113 87
-214 91 -225 6 -20 2 -20 -503 -20 -280 0 -512 3 -516 6 -5 6 12 55 51 144 10
22 18 45 20 50 1 6 11 30 22 55 12 25 42 97 67 160 26 63 62 151 80 195 18 44
49 121 69 170 20 50 44 102 52 117 8 15 14 29 14 30 -2 4 7 25 59 155 23 55
49 131 58 167 10 36 18 64 19 63 1 -1 12 -38 23 -82z"/>
</g>
</svg>
